<mxfile host="app.diagrams.net" agent="Mozilla/5.0 (Windows NT 10.0; Win64; x64) AppleWebKit/537.36 (KHTML, like Gecko) Chrome/137.0.0.0 Safari/537.36" version="27.1.4">
  <diagram name="PÃ¡gina-1" id="OxDKacYra3YioOp2r8lD">
    <mxGraphModel dx="656" dy="356" grid="1" gridSize="10" guides="1" tooltips="1" connect="1" arrows="1" fold="1" page="1" pageScale="1" pageWidth="827" pageHeight="1169" math="0" shadow="0">
      <root>
        <mxCell id="0" />
        <mxCell id="1" parent="0" />
        <mxCell id="5hqygZVw01tg1vc8QEkX-1" value="Usuario" style="swimlane;fontStyle=1;align=center;verticalAlign=top;childLayout=stackLayout;horizontal=1;startSize=26;horizontalStack=0;resizeParent=1;resizeParentMax=0;resizeLast=0;collapsible=1;marginBottom=0;whiteSpace=wrap;html=1;" parent="1" vertex="1">
          <mxGeometry x="10" y="10" width="140" height="294" as="geometry" />
        </mxCell>
        <mxCell id="5hqygZVw01tg1vc8QEkX-2" value="+ nome:&amp;nbsp;&lt;div&gt;&lt;br&gt;&lt;/div&gt;" style="text;strokeColor=none;fillColor=none;align=left;verticalAlign=top;spacingLeft=4;spacingRight=4;overflow=hidden;rotatable=0;points=[[0,0.5],[1,0.5]];portConstraint=eastwest;whiteSpace=wrap;html=1;" parent="5hqygZVw01tg1vc8QEkX-1" vertex="1">
          <mxGeometry y="26" width="140" height="26" as="geometry" />
        </mxCell>
        <mxCell id="5hqygZVw01tg1vc8QEkX-3" value="+ telefone:&amp;nbsp;" style="text;strokeColor=none;fillColor=none;align=left;verticalAlign=top;spacingLeft=4;spacingRight=4;overflow=hidden;rotatable=0;points=[[0,0.5],[1,0.5]];portConstraint=eastwest;whiteSpace=wrap;html=1;" parent="5hqygZVw01tg1vc8QEkX-1" vertex="1">
          <mxGeometry y="52" width="140" height="26" as="geometry" />
        </mxCell>
        <mxCell id="5hqygZVw01tg1vc8QEkX-4" value="+ email:&amp;nbsp;" style="text;strokeColor=none;fillColor=none;align=left;verticalAlign=top;spacingLeft=4;spacingRight=4;overflow=hidden;rotatable=0;points=[[0,0.5],[1,0.5]];portConstraint=eastwest;whiteSpace=wrap;html=1;" parent="5hqygZVw01tg1vc8QEkX-1" vertex="1">
          <mxGeometry y="78" width="140" height="26" as="geometry" />
        </mxCell>
        <mxCell id="5hqygZVw01tg1vc8QEkX-5" value="+ endereco:&amp;nbsp;" style="text;strokeColor=none;fillColor=none;align=left;verticalAlign=top;spacingLeft=4;spacingRight=4;overflow=hidden;rotatable=0;points=[[0,0.5],[1,0.5]];portConstraint=eastwest;whiteSpace=wrap;html=1;" parent="5hqygZVw01tg1vc8QEkX-1" vertex="1">
          <mxGeometry y="104" width="140" height="26" as="geometry" />
        </mxCell>
        <mxCell id="5hqygZVw01tg1vc8QEkX-6" value="+ senha:&amp;nbsp;" style="text;strokeColor=none;fillColor=none;align=left;verticalAlign=top;spacingLeft=4;spacingRight=4;overflow=hidden;rotatable=0;points=[[0,0.5],[1,0.5]];portConstraint=eastwest;whiteSpace=wrap;html=1;" parent="5hqygZVw01tg1vc8QEkX-1" vertex="1">
          <mxGeometry y="130" width="140" height="26" as="geometry" />
        </mxCell>
        <mxCell id="5hqygZVw01tg1vc8QEkX-8" value="" style="line;strokeWidth=1;fillColor=none;align=left;verticalAlign=middle;spacingTop=-1;spacingLeft=3;spacingRight=3;rotatable=0;labelPosition=right;points=[];portConstraint=eastwest;strokeColor=inherit;" parent="5hqygZVw01tg1vc8QEkX-1" vertex="1">
          <mxGeometry y="156" width="140" height="8" as="geometry" />
        </mxCell>
        <mxCell id="5hqygZVw01tg1vc8QEkX-9" value="+ cadastro():&amp;nbsp;" style="text;strokeColor=none;fillColor=none;align=left;verticalAlign=top;spacingLeft=4;spacingRight=4;overflow=hidden;rotatable=0;points=[[0,0.5],[1,0.5]];portConstraint=eastwest;whiteSpace=wrap;html=1;" parent="5hqygZVw01tg1vc8QEkX-1" vertex="1">
          <mxGeometry y="164" width="140" height="26" as="geometry" />
        </mxCell>
        <mxCell id="5hqygZVw01tg1vc8QEkX-10" value="+ login(email, senha):&amp;nbsp;" style="text;strokeColor=none;fillColor=none;align=left;verticalAlign=top;spacingLeft=4;spacingRight=4;overflow=hidden;rotatable=0;points=[[0,0.5],[1,0.5]];portConstraint=eastwest;whiteSpace=wrap;html=1;" parent="5hqygZVw01tg1vc8QEkX-1" vertex="1">
          <mxGeometry y="190" width="140" height="26" as="geometry" />
        </mxCell>
        <mxCell id="5hqygZVw01tg1vc8QEkX-11" value="+ consultarSalas():&amp;nbsp;" style="text;strokeColor=none;fillColor=none;align=left;verticalAlign=top;spacingLeft=4;spacingRight=4;overflow=hidden;rotatable=0;points=[[0,0.5],[1,0.5]];portConstraint=eastwest;whiteSpace=wrap;html=1;" parent="5hqygZVw01tg1vc8QEkX-1" vertex="1">
          <mxGeometry y="216" width="140" height="26" as="geometry" />
        </mxCell>
        <mxCell id="5hqygZVw01tg1vc8QEkX-12" value="+ reservarSala():&amp;nbsp;" style="text;strokeColor=none;fillColor=none;align=left;verticalAlign=top;spacingLeft=4;spacingRight=4;overflow=hidden;rotatable=0;points=[[0,0.5],[1,0.5]];portConstraint=eastwest;whiteSpace=wrap;html=1;" parent="5hqygZVw01tg1vc8QEkX-1" vertex="1">
          <mxGeometry y="242" width="140" height="26" as="geometry" />
        </mxCell>
        <mxCell id="dbnyjXKjVC4cL_Qatju8-1" value="+ realizarPagamento():&amp;nbsp;" style="text;strokeColor=none;fillColor=none;align=left;verticalAlign=top;spacingLeft=4;spacingRight=4;overflow=hidden;rotatable=0;points=[[0,0.5],[1,0.5]];portConstraint=eastwest;whiteSpace=wrap;html=1;" vertex="1" parent="5hqygZVw01tg1vc8QEkX-1">
          <mxGeometry y="268" width="140" height="26" as="geometry" />
        </mxCell>
        <mxCell id="5hqygZVw01tg1vc8QEkX-14" value="Administrador" style="swimlane;fontStyle=1;align=center;verticalAlign=top;childLayout=stackLayout;horizontal=1;startSize=26;horizontalStack=0;resizeParent=1;resizeParentMax=0;resizeLast=0;collapsible=1;marginBottom=0;whiteSpace=wrap;html=1;" parent="1" vertex="1">
          <mxGeometry x="390" y="10" width="180" height="242" as="geometry" />
        </mxCell>
        <mxCell id="5hqygZVw01tg1vc8QEkX-15" value="+ nome:&amp;nbsp;&lt;div&gt;&lt;br&gt;&lt;/div&gt;" style="text;strokeColor=none;fillColor=none;align=left;verticalAlign=top;spacingLeft=4;spacingRight=4;overflow=hidden;rotatable=0;points=[[0,0.5],[1,0.5]];portConstraint=eastwest;whiteSpace=wrap;html=1;" parent="5hqygZVw01tg1vc8QEkX-14" vertex="1">
          <mxGeometry y="26" width="180" height="26" as="geometry" />
        </mxCell>
        <mxCell id="CsH41WX7r55ooFt3V-F5-3" value="+ telefone:" style="text;strokeColor=none;fillColor=none;align=left;verticalAlign=top;spacingLeft=4;spacingRight=4;overflow=hidden;rotatable=0;points=[[0,0.5],[1,0.5]];portConstraint=eastwest;whiteSpace=wrap;html=1;" parent="5hqygZVw01tg1vc8QEkX-14" vertex="1">
          <mxGeometry y="52" width="180" height="26" as="geometry" />
        </mxCell>
        <mxCell id="5hqygZVw01tg1vc8QEkX-16" value="+ email:&amp;nbsp;" style="text;strokeColor=none;fillColor=none;align=left;verticalAlign=top;spacingLeft=4;spacingRight=4;overflow=hidden;rotatable=0;points=[[0,0.5],[1,0.5]];portConstraint=eastwest;whiteSpace=wrap;html=1;" parent="5hqygZVw01tg1vc8QEkX-14" vertex="1">
          <mxGeometry y="78" width="180" height="26" as="geometry" />
        </mxCell>
        <mxCell id="5hqygZVw01tg1vc8QEkX-17" value="+ endereco:&amp;nbsp;" style="text;strokeColor=none;fillColor=none;align=left;verticalAlign=top;spacingLeft=4;spacingRight=4;overflow=hidden;rotatable=0;points=[[0,0.5],[1,0.5]];portConstraint=eastwest;whiteSpace=wrap;html=1;" parent="5hqygZVw01tg1vc8QEkX-14" vertex="1">
          <mxGeometry y="104" width="180" height="26" as="geometry" />
        </mxCell>
        <mxCell id="5hqygZVw01tg1vc8QEkX-20" value="+ senha:&amp;nbsp;" style="text;strokeColor=none;fillColor=none;align=left;verticalAlign=top;spacingLeft=4;spacingRight=4;overflow=hidden;rotatable=0;points=[[0,0.5],[1,0.5]];portConstraint=eastwest;whiteSpace=wrap;html=1;" parent="5hqygZVw01tg1vc8QEkX-14" vertex="1">
          <mxGeometry y="130" width="180" height="26" as="geometry" />
        </mxCell>
        <mxCell id="5hqygZVw01tg1vc8QEkX-21" value="" style="line;strokeWidth=1;fillColor=none;align=left;verticalAlign=middle;spacingTop=-1;spacingLeft=3;spacingRight=3;rotatable=0;labelPosition=right;points=[];portConstraint=eastwest;strokeColor=inherit;" parent="5hqygZVw01tg1vc8QEkX-14" vertex="1">
          <mxGeometry y="156" width="180" height="8" as="geometry" />
        </mxCell>
        <mxCell id="5hqygZVw01tg1vc8QEkX-22" value="+ cadastro():&amp;nbsp;" style="text;strokeColor=none;fillColor=none;align=left;verticalAlign=top;spacingLeft=4;spacingRight=4;overflow=hidden;rotatable=0;points=[[0,0.5],[1,0.5]];portConstraint=eastwest;whiteSpace=wrap;html=1;" parent="5hqygZVw01tg1vc8QEkX-14" vertex="1">
          <mxGeometry y="164" width="180" height="26" as="geometry" />
        </mxCell>
        <mxCell id="5hqygZVw01tg1vc8QEkX-23" value="+ login(email, senha):&amp;nbsp;" style="text;strokeColor=none;fillColor=none;align=left;verticalAlign=top;spacingLeft=4;spacingRight=4;overflow=hidden;rotatable=0;points=[[0,0.5],[1,0.5]];portConstraint=eastwest;whiteSpace=wrap;html=1;" parent="5hqygZVw01tg1vc8QEkX-14" vertex="1">
          <mxGeometry y="190" width="180" height="26" as="geometry" />
        </mxCell>
        <mxCell id="CsH41WX7r55ooFt3V-F5-4" value="+ cadastrarSala():&amp;nbsp;" style="text;strokeColor=none;fillColor=none;align=left;verticalAlign=top;spacingLeft=4;spacingRight=4;overflow=hidden;rotatable=0;points=[[0,0.5],[1,0.5]];portConstraint=eastwest;whiteSpace=wrap;html=1;" parent="5hqygZVw01tg1vc8QEkX-14" vertex="1">
          <mxGeometry y="216" width="180" height="26" as="geometry" />
        </mxCell>
        <mxCell id="5hqygZVw01tg1vc8QEkX-26" value="Pagamento" style="swimlane;fontStyle=1;align=center;verticalAlign=top;childLayout=stackLayout;horizontal=1;startSize=26;horizontalStack=0;resizeParent=1;resizeParentMax=0;resizeLast=0;collapsible=1;marginBottom=0;whiteSpace=wrap;html=1;" parent="1" vertex="1">
          <mxGeometry x="170" y="180" width="190" height="216" as="geometry" />
        </mxCell>
        <mxCell id="5hqygZVw01tg1vc8QEkX-27" value="+ nomeUsuario:&amp;nbsp;&lt;div&gt;&lt;br&gt;&lt;/div&gt;" style="text;strokeColor=none;fillColor=none;align=left;verticalAlign=top;spacingLeft=4;spacingRight=4;overflow=hidden;rotatable=0;points=[[0,0.5],[1,0.5]];portConstraint=eastwest;whiteSpace=wrap;html=1;" parent="5hqygZVw01tg1vc8QEkX-26" vertex="1">
          <mxGeometry y="26" width="190" height="26" as="geometry" />
        </mxCell>
        <mxCell id="5hqygZVw01tg1vc8QEkX-28" value="+ nomeSala:&amp;nbsp;" style="text;strokeColor=none;fillColor=none;align=left;verticalAlign=top;spacingLeft=4;spacingRight=4;overflow=hidden;rotatable=0;points=[[0,0.5],[1,0.5]];portConstraint=eastwest;whiteSpace=wrap;html=1;" parent="5hqygZVw01tg1vc8QEkX-26" vertex="1">
          <mxGeometry y="52" width="190" height="26" as="geometry" />
        </mxCell>
        <mxCell id="dbnyjXKjVC4cL_Qatju8-2" value="+ meioPagamento:&amp;nbsp;" style="text;strokeColor=none;fillColor=none;align=left;verticalAlign=top;spacingLeft=4;spacingRight=4;overflow=hidden;rotatable=0;points=[[0,0.5],[1,0.5]];portConstraint=eastwest;whiteSpace=wrap;html=1;" vertex="1" parent="5hqygZVw01tg1vc8QEkX-26">
          <mxGeometry y="78" width="190" height="26" as="geometry" />
        </mxCell>
        <mxCell id="5hqygZVw01tg1vc8QEkX-29" value="" style="line;strokeWidth=1;fillColor=none;align=left;verticalAlign=middle;spacingTop=-1;spacingLeft=3;spacingRight=3;rotatable=0;labelPosition=right;points=[];portConstraint=eastwest;strokeColor=inherit;" parent="5hqygZVw01tg1vc8QEkX-26" vertex="1">
          <mxGeometry y="104" width="190" height="8" as="geometry" />
        </mxCell>
        <mxCell id="5hqygZVw01tg1vc8QEkX-30" value="+ confirmarPagamento():" style="text;strokeColor=none;fillColor=none;align=left;verticalAlign=top;spacingLeft=4;spacingRight=4;overflow=hidden;rotatable=0;points=[[0,0.5],[1,0.5]];portConstraint=eastwest;whiteSpace=wrap;html=1;" parent="5hqygZVw01tg1vc8QEkX-26" vertex="1">
          <mxGeometry y="112" width="190" height="26" as="geometry" />
        </mxCell>
        <mxCell id="dbnyjXKjVC4cL_Qatju8-3" value="+ reservarSala(nomeSala):" style="text;strokeColor=none;fillColor=none;align=left;verticalAlign=top;spacingLeft=4;spacingRight=4;overflow=hidden;rotatable=0;points=[[0,0.5],[1,0.5]];portConstraint=eastwest;whiteSpace=wrap;html=1;" vertex="1" parent="5hqygZVw01tg1vc8QEkX-26">
          <mxGeometry y="138" width="190" height="26" as="geometry" />
        </mxCell>
        <mxCell id="CsH41WX7r55ooFt3V-F5-1" value="+ notificarUsuario(nomeUsuario):" style="text;strokeColor=none;fillColor=none;align=left;verticalAlign=top;spacingLeft=4;spacingRight=4;overflow=hidden;rotatable=0;points=[[0,0.5],[1,0.5]];portConstraint=eastwest;whiteSpace=wrap;html=1;" parent="5hqygZVw01tg1vc8QEkX-26" vertex="1">
          <mxGeometry y="164" width="190" height="26" as="geometry" />
        </mxCell>
        <mxCell id="CsH41WX7r55ooFt3V-F5-2" value="+ confirmarReserva():" style="text;strokeColor=none;fillColor=none;align=left;verticalAlign=top;spacingLeft=4;spacingRight=4;overflow=hidden;rotatable=0;points=[[0,0.5],[1,0.5]];portConstraint=eastwest;whiteSpace=wrap;html=1;" parent="5hqygZVw01tg1vc8QEkX-26" vertex="1">
          <mxGeometry y="190" width="190" height="26" as="geometry" />
        </mxCell>
        <mxCell id="5hqygZVw01tg1vc8QEkX-31" value="Sala" style="swimlane;fontStyle=1;align=center;verticalAlign=top;childLayout=stackLayout;horizontal=1;startSize=26;horizontalStack=0;resizeParent=1;resizeParentMax=0;resizeLast=0;collapsible=1;marginBottom=0;whiteSpace=wrap;html=1;" parent="1" vertex="1">
          <mxGeometry x="185" y="10" width="160" height="112" as="geometry" />
        </mxCell>
        <mxCell id="5hqygZVw01tg1vc8QEkX-32" value="+ nomeSala:&amp;nbsp;&lt;div&gt;&lt;br&gt;&lt;/div&gt;" style="text;strokeColor=none;fillColor=none;align=left;verticalAlign=top;spacingLeft=4;spacingRight=4;overflow=hidden;rotatable=0;points=[[0,0.5],[1,0.5]];portConstraint=eastwest;whiteSpace=wrap;html=1;" parent="5hqygZVw01tg1vc8QEkX-31" vertex="1">
          <mxGeometry y="26" width="160" height="26" as="geometry" />
        </mxCell>
        <mxCell id="5hqygZVw01tg1vc8QEkX-33" value="+ horariosDisponiveis:&amp;nbsp;&lt;div&gt;&lt;br&gt;&lt;/div&gt;" style="text;strokeColor=none;fillColor=none;align=left;verticalAlign=top;spacingLeft=4;spacingRight=4;overflow=hidden;rotatable=0;points=[[0,0.5],[1,0.5]];portConstraint=eastwest;whiteSpace=wrap;html=1;" parent="5hqygZVw01tg1vc8QEkX-31" vertex="1">
          <mxGeometry y="52" width="160" height="26" as="geometry" />
        </mxCell>
        <mxCell id="5hqygZVw01tg1vc8QEkX-35" value="" style="line;strokeWidth=1;fillColor=none;align=left;verticalAlign=middle;spacingTop=-1;spacingLeft=3;spacingRight=3;rotatable=0;labelPosition=right;points=[];portConstraint=eastwest;strokeColor=inherit;" parent="5hqygZVw01tg1vc8QEkX-31" vertex="1">
          <mxGeometry y="78" width="160" height="8" as="geometry" />
        </mxCell>
        <mxCell id="5hqygZVw01tg1vc8QEkX-37" value="+ verificarDisponibilidade():" style="text;strokeColor=none;fillColor=none;align=left;verticalAlign=top;spacingLeft=4;spacingRight=4;overflow=hidden;rotatable=0;points=[[0,0.5],[1,0.5]];portConstraint=eastwest;whiteSpace=wrap;html=1;" parent="5hqygZVw01tg1vc8QEkX-31" vertex="1">
          <mxGeometry y="86" width="160" height="26" as="geometry" />
        </mxCell>
        <mxCell id="5hqygZVw01tg1vc8QEkX-38" style="edgeStyle=orthogonalEdgeStyle;rounded=0;orthogonalLoop=1;jettySize=auto;html=1;exitX=1;exitY=0.5;exitDx=0;exitDy=0;entryX=0;entryY=0.5;entryDx=0;entryDy=0;endArrow=none;startFill=0;" parent="1" source="5hqygZVw01tg1vc8QEkX-3" target="5hqygZVw01tg1vc8QEkX-33" edge="1">
          <mxGeometry relative="1" as="geometry">
            <mxPoint x="265" y="101" as="targetPoint" />
          </mxGeometry>
        </mxCell>
        <mxCell id="5hqygZVw01tg1vc8QEkX-39" style="rounded=0;orthogonalLoop=1;jettySize=auto;html=1;exitX=1;exitY=0.5;exitDx=0;exitDy=0;endArrow=none;startFill=0;entryX=0;entryY=0.5;entryDx=0;entryDy=0;" parent="1" source="5hqygZVw01tg1vc8QEkX-33" target="CsH41WX7r55ooFt3V-F5-3" edge="1">
          <mxGeometry relative="1" as="geometry">
            <mxPoint x="590" y="80" as="targetPoint" />
          </mxGeometry>
        </mxCell>
        <mxCell id="5hqygZVw01tg1vc8QEkX-40" style="edgeStyle=orthogonalEdgeStyle;rounded=0;orthogonalLoop=1;jettySize=auto;html=1;exitX=0;exitY=0.5;exitDx=0;exitDy=0;entryX=0.996;entryY=0.176;entryDx=0;entryDy=0;endArrow=none;startFill=0;entryPerimeter=0;" parent="1" source="5hqygZVw01tg1vc8QEkX-28" target="5hqygZVw01tg1vc8QEkX-12" edge="1">
          <mxGeometry relative="1" as="geometry" />
        </mxCell>
        <mxCell id="5hqygZVw01tg1vc8QEkX-41" style="rounded=0;orthogonalLoop=1;jettySize=auto;html=1;exitX=0.5;exitY=0;exitDx=0;exitDy=0;entryX=0.5;entryY=1.014;entryDx=0;entryDy=0;entryPerimeter=0;endArrow=none;startFill=0;" parent="1" source="5hqygZVw01tg1vc8QEkX-26" target="5hqygZVw01tg1vc8QEkX-37" edge="1">
          <mxGeometry relative="1" as="geometry" />
        </mxCell>
      </root>
    </mxGraphModel>
  </diagram>
</mxfile>
